<?xml version="1.0" encoding="iso-8859-1"?>
<!-- Uploaded to: SVG Repo, www.svgrepo.com, Generator: SVG Repo Mixer Tools -->
<!DOCTYPE svg PUBLIC "-//W3C//DTD SVG 1.1//EN" "http://www.w3.org/Graphics/SVG/1.1/DTD/svg11.dtd">
<svg fill="#000000" height="800px" width="800px" version="1.1" id="Capa_1" xmlns="http://www.w3.org/2000/svg" xmlns:xlink="http://www.w3.org/1999/xlink" 
	 viewBox="0 0 251.176 251.176" xml:space="preserve">
<g>
	<path d="M62.413,180.28c-1.258-2.459-4.271-3.433-6.729-2.174c-2.458,1.258-3.432,4.27-2.174,6.729
		c1.921,3.755,4.158,7.392,6.648,10.808c0.979,1.343,2.501,2.056,4.044,2.056c1.021,0,2.053-0.312,2.941-0.96
		c2.232-1.626,2.722-4.754,1.096-6.986C66.057,186.757,64.097,183.57,62.413,180.28z"/>
	<path d="M102.939,75.377c-0.995-2.576-3.89-3.858-6.465-2.865c-3.936,1.519-7.786,3.364-11.442,5.486
		c-2.389,1.386-3.201,4.445-1.815,6.834c0.928,1.599,2.605,2.492,4.33,2.492c0.852,0,1.715-0.218,2.504-0.676
		c3.203-1.858,6.575-3.475,10.023-4.805C102.65,80.848,103.933,77.954,102.939,75.377z"/>
	<path d="M147.532,215.485c-3.517,1.143-7.155,2.015-10.812,2.591c-2.728,0.429-4.591,2.989-4.162,5.716
		c0.388,2.465,2.514,4.223,4.933,4.223c0.258,0,0.521-0.02,0.784-0.062c4.177-0.657,8.332-1.653,12.349-2.959
		c2.626-0.854,4.063-3.675,3.209-6.301C152.979,216.067,150.159,214.629,147.532,215.485z"/>
	<path d="M196.996,174.34c-2.525-1.126-5.479,0.009-6.603,2.531c-1.505,3.377-3.294,6.666-5.317,9.775
		c-1.505,2.315-0.85,5.412,1.465,6.918c0.842,0.547,1.787,0.809,2.722,0.809c1.635,0,3.238-0.801,4.196-2.274
		c2.308-3.548,4.35-7.302,6.068-11.157C200.651,178.42,199.518,175.464,196.996,174.34z"/>
	<path d="M118.205,218.564c-3.69-0.381-7.371-1.057-10.938-2.009c-2.665-0.709-5.408,0.874-6.12,3.542
		c-0.712,2.668,0.875,5.408,3.542,6.12c4.074,1.086,8.275,1.858,12.487,2.294c0.175,0.018,0.348,0.027,0.52,0.027
		c2.53,0,4.702-1.915,4.968-4.486C122.948,221.305,120.952,218.848,118.205,218.564z"/>
	<path d="M173.047,200.723c-2.752,2.481-5.72,4.762-8.821,6.781c-2.314,1.506-2.969,4.604-1.462,6.918
		c0.958,1.472,2.56,2.272,4.195,2.272c0.935,0,1.881-0.262,2.723-0.811c3.537-2.302,6.921-4.904,10.06-7.732
		c2.051-1.849,2.216-5.01,0.367-7.062C178.26,199.038,175.098,198.874,173.047,200.723z"/>
	<path d="M196.502,147.865l0,0.165c0,3.72-0.29,7.453-0.862,11.096c-0.428,2.728,1.436,5.287,4.164,5.715
		c0.263,0.042,0.524,0.061,0.782,0.061c2.419,0,4.546-1.76,4.933-4.225c0.652-4.155,0.983-8.41,0.983-12.692l0-0.12
		c0-2.761-2.239-5-5-5S196.502,145.104,196.502,147.865z"/>
	<path d="M180.62,103.301c0.988,1.214,2.428,1.844,3.881,1.844c1.109,0,2.226-0.367,3.153-1.122
		c2.142-1.743,2.465-4.892,0.722-7.034c-2.666-3.275-5.61-6.366-8.752-9.188c-2.054-1.845-5.216-1.674-7.061,0.38
		c-1.845,2.055-1.674,5.216,0.38,7.061C175.699,97.717,178.282,100.428,180.62,103.301z"/>
	<path d="M144.168,74.234c-0.848,2.628,0.595,5.446,3.223,6.294c3.522,1.137,6.983,2.564,10.285,4.243
		c0.726,0.369,1.5,0.544,2.262,0.544c1.822,0,3.579-1,4.461-2.735c1.251-2.462,0.271-5.472-2.191-6.723
		c-3.771-1.917-7.723-3.547-11.746-4.846C147.835,70.165,145.016,71.606,144.168,74.234z"/>
	<path d="M194.065,129.526c0.601,2.23,2.62,3.7,4.825,3.7c0.431,0,0.868-0.056,1.304-0.174c2.666-0.718,4.245-3.462,3.526-6.129
		c-1.1-4.08-2.534-8.104-4.263-11.962c-1.13-2.52-4.089-3.648-6.608-2.517c-2.52,1.13-3.646,4.088-2.517,6.608
		C191.847,122.43,193.103,125.954,194.065,129.526z"/>
	<path d="M90.169,209.479c-3.205-1.852-6.29-3.973-9.171-6.306c-2.146-1.738-5.295-1.407-7.032,0.739
		c-1.738,2.146-1.407,5.295,0.739,7.032c3.286,2.661,6.805,5.081,10.461,7.192c0.788,0.456,1.648,0.672,2.497,0.672
		c1.728,0,3.408-0.896,4.334-2.5C93.378,213.919,92.56,210.861,90.169,209.479z"/>
	<path d="M61.179,107.521c0.887,0.645,1.915,0.955,2.934,0.955c1.546,0,3.072-0.715,4.05-2.063c2.175-2.995,4.605-5.845,7.224-8.469
		c1.95-1.955,1.946-5.121-0.009-7.071c-1.955-1.95-5.12-1.946-7.071,0.009c-2.984,2.992-5.755,6.241-8.235,9.657
		C58.448,102.772,58.944,105.899,61.179,107.521z"/>
	<path d="M50.271,137.219c0.347,0.073,0.693,0.108,1.034,0.108c2.315,0,4.393-1.617,4.888-3.972
		c0.762-3.625,1.82-7.216,3.144-10.673c0.987-2.579-0.303-5.47-2.881-6.458c-2.58-0.986-5.47,0.303-6.458,2.881
		c-1.512,3.949-2.72,8.051-3.591,12.191C45.838,134,47.568,136.651,50.271,137.219z"/>
	<path d="M56.224,162.848c-0.767-3.609-1.255-7.32-1.45-11.03c-0.146-2.757-2.5-4.858-5.256-4.73
		c-2.758,0.145-4.875,2.499-4.73,5.256c0.223,4.23,0.779,8.464,1.655,12.583c0.5,2.351,2.575,3.961,4.886,3.961
		c0.344,0,0.694-0.036,1.044-0.11C55.074,168.204,56.798,165.549,56.224,162.848z"/>
	<path d="M226.538,103.108L170.51,47.079c-1.406-1.407-3.314-2.197-5.303-2.197h-32.119V7.5c0-4.142-3.358-7.5-7.5-7.5
		s-7.5,3.358-7.5,7.5v14.205l-3.714,23.177H85.97c-1.989,0-3.897,0.79-5.303,2.197l-56.028,56.029
		c-1.407,1.406-2.197,3.314-2.197,5.303v79.236c0,1.989,0.79,3.897,2.197,5.303l56.028,56.029c1.406,1.407,3.314,2.197,5.303,2.197
		h79.237c1.989,0,3.897-0.79,5.303-2.197l56.028-56.029c1.407-1.406,2.197-3.314,2.197-5.303v-79.236
		C228.735,106.422,227.945,104.514,226.538,103.108z M213.735,184.541L162.1,236.176H89.076l-51.635-51.635v-73.023l51.635-51.635
		h22.895l-11.758,73.383c-0.437,2.727,1.419,5.291,4.146,5.728c0.268,0.043,0.534,0.064,0.797,0.064c2.413,0,4.537-1.751,4.931-4.21
		l8.001-49.935v63.117c0,4.142,3.358,7.5,7.5,7.5s7.5-3.358,7.5-7.5V75.596c0.772-0.832,1.282-1.914,1.343-3.137
		c0.07-1.406-0.453-2.701-1.343-3.656v-8.922H162.1l51.635,51.635V184.541z"/>
</g>
</svg>